<mxfile host="Electron" modified="2023-11-07T12:23:16.557Z" agent="Mozilla/5.0 (Windows NT 10.0; Win64; x64) AppleWebKit/537.36 (KHTML, like Gecko) draw.io/22.0.0 Chrome/114.0.5735.289 Electron/25.8.3 Safari/537.36" etag="QmpXhaDbO-whjCegbRuS" version="22.0.0" type="device">
  <diagram name="Page-1" id="1r1AyOryBnJEiCeUGwmR">
    <mxGraphModel dx="1050" dy="621" grid="1" gridSize="10" guides="1" tooltips="1" connect="1" arrows="1" fold="1" page="1" pageScale="1" pageWidth="827" pageHeight="1169" math="0" shadow="0">
      <root>
        <mxCell id="0" />
        <mxCell id="1" parent="0" />
        <mxCell id="rB4Y1eUFVRoOfI1-BTqv-14" value="Reduce knowledge of systems" style="text;html=1;align=center;verticalAlign=middle;resizable=0;points=[];autosize=1;strokeColor=none;fillColor=none;fontSize=20;fontFamily=Architects Daughter;fontStyle=1" parent="1" vertex="1">
          <mxGeometry x="45" y="293" width="310" height="40" as="geometry" />
        </mxCell>
        <mxCell id="rB4Y1eUFVRoOfI1-BTqv-15" value="&lt;span style=&quot;font-size: 15px;&quot;&gt;Senders and consumers are decoupled.&lt;br&gt;They don&#39;t know about each other&lt;br&gt;&lt;/span&gt;" style="text;html=1;align=center;verticalAlign=middle;resizable=0;points=[];autosize=1;strokeColor=none;fillColor=none;fontSize=20;fontFamily=Architects Daughter;fontStyle=0" parent="1" vertex="1">
          <mxGeometry x="60" y="320" width="300" height="60" as="geometry" />
        </mxCell>
        <mxCell id="rB4Y1eUFVRoOfI1-BTqv-83" value="&lt;font style=&quot;font-size: 15px;&quot;&gt;Consumer 1&lt;/font&gt;" style="rounded=1;whiteSpace=wrap;html=1;sketch=1;hachureGap=4;jiggle=2;curveFitting=1;fontFamily=Architects Daughter;fontSource=https%3A%2F%2Ffonts.googleapis.com%2Fcss%3Ffamily%3DArchitects%2BDaughter;fontSize=20;fontStyle=1;fillColor=#dae8fc;strokeColor=#6c8ebf;" parent="1" vertex="1">
          <mxGeometry x="660" y="180.69" width="93" height="37.31" as="geometry" />
        </mxCell>
        <mxCell id="rB4Y1eUFVRoOfI1-BTqv-90" value="&lt;font style=&quot;font-size: 15px;&quot;&gt;Consumer 2&lt;/font&gt;" style="rounded=1;whiteSpace=wrap;html=1;sketch=1;hachureGap=4;jiggle=2;curveFitting=1;fontFamily=Architects Daughter;fontSource=https%3A%2F%2Ffonts.googleapis.com%2Fcss%3Ffamily%3DArchitects%2BDaughter;fontSize=20;fontStyle=1;fillColor=#dae8fc;strokeColor=#6c8ebf;" parent="1" vertex="1">
          <mxGeometry x="660" y="244.87999999999997" width="93" height="37.31" as="geometry" />
        </mxCell>
        <mxCell id="sZInOojBc2r-sn2G34uh-14" style="rounded=0;sketch=1;hachureGap=4;jiggle=2;curveFitting=1;orthogonalLoop=1;jettySize=auto;html=1;exitX=1;exitY=0.25;exitDx=0;exitDy=0;fontFamily=Architects Daughter;fontSource=https%3A%2F%2Ffonts.googleapis.com%2Fcss%3Ffamily%3DArchitects%2BDaughter;fontSize=16;dashed=1;dashPattern=8 8;" edge="1" parent="1" source="sZInOojBc2r-sn2G34uh-17">
          <mxGeometry relative="1" as="geometry">
            <mxPoint x="310" y="232" as="targetPoint" />
          </mxGeometry>
        </mxCell>
        <mxCell id="sZInOojBc2r-sn2G34uh-15" style="rounded=0;sketch=1;hachureGap=4;jiggle=2;curveFitting=1;orthogonalLoop=1;jettySize=auto;html=1;exitX=0;exitY=0.75;exitDx=0;exitDy=0;entryX=1;entryY=0.75;entryDx=0;entryDy=0;fontFamily=Architects Daughter;fontSource=https%3A%2F%2Ffonts.googleapis.com%2Fcss%3Ffamily%3DArchitects%2BDaughter;fontSize=16;" edge="1" parent="1" source="sZInOojBc2r-sn2G34uh-17" target="sZInOojBc2r-sn2G34uh-21">
          <mxGeometry relative="1" as="geometry" />
        </mxCell>
        <mxCell id="sZInOojBc2r-sn2G34uh-16" value="act" style="edgeLabel;html=1;align=center;verticalAlign=middle;resizable=0;points=[];fontSize=15;fontFamily=Architects Daughter;fontStyle=1" vertex="1" connectable="0" parent="sZInOojBc2r-sn2G34uh-15">
          <mxGeometry x="-0.1667" y="-2" relative="1" as="geometry">
            <mxPoint x="-2" y="14" as="offset" />
          </mxGeometry>
        </mxCell>
        <mxCell id="sZInOojBc2r-sn2G34uh-17" value="" style="rounded=1;whiteSpace=wrap;html=1;sketch=1;hachureGap=4;jiggle=2;curveFitting=1;fontFamily=Architects Daughter;fontSource=https%3A%2F%2Ffonts.googleapis.com%2Fcss%3Ffamily%3DArchitects%2BDaughter;fontSize=20;" vertex="1" parent="1">
          <mxGeometry x="149.5" y="224.88" width="85" height="30" as="geometry" />
        </mxCell>
        <mxCell id="sZInOojBc2r-sn2G34uh-18" value="" style="sketch=0;pointerEvents=1;shadow=0;dashed=0;html=1;strokeColor=#2D7600;fillColor=#60a917;labelPosition=center;verticalLabelPosition=bottom;verticalAlign=top;align=center;outlineConnect=0;shape=mxgraph.veeam2.letter;hachureGap=4;jiggle=2;curveFitting=1;fontFamily=Architects Daughter;fontSource=https%3A%2F%2Ffonts.googleapis.com%2Fcss%3Ffamily%3DArchitects%2BDaughter;fontSize=20;fontColor=#ffffff;" vertex="1" parent="1">
          <mxGeometry x="159.5" y="229.88" width="25" height="15" as="geometry" />
        </mxCell>
        <mxCell id="sZInOojBc2r-sn2G34uh-19" value="" style="sketch=0;pointerEvents=1;shadow=0;dashed=0;html=1;strokeColor=#C73500;fillColor=#fa6800;labelPosition=center;verticalLabelPosition=bottom;verticalAlign=top;align=center;outlineConnect=0;shape=mxgraph.veeam2.letter;hachureGap=4;jiggle=2;curveFitting=1;fontFamily=Architects Daughter;fontSource=https%3A%2F%2Ffonts.googleapis.com%2Fcss%3Ffamily%3DArchitects%2BDaughter;fontSize=20;fontColor=#000000;" vertex="1" parent="1">
          <mxGeometry x="192" y="229.88" width="25" height="15" as="geometry" />
        </mxCell>
        <mxCell id="sZInOojBc2r-sn2G34uh-20" style="rounded=0;sketch=1;hachureGap=4;jiggle=2;curveFitting=1;orthogonalLoop=1;jettySize=auto;html=1;exitX=1;exitY=0.25;exitDx=0;exitDy=0;entryX=0;entryY=0.25;entryDx=0;entryDy=0;fontFamily=Architects Daughter;fontSource=https%3A%2F%2Ffonts.googleapis.com%2Fcss%3Ffamily%3DArchitects%2BDaughter;fontSize=16;" edge="1" parent="1" source="sZInOojBc2r-sn2G34uh-21" target="sZInOojBc2r-sn2G34uh-17">
          <mxGeometry relative="1" as="geometry" />
        </mxCell>
        <mxCell id="sZInOojBc2r-sn2G34uh-21" value="&lt;font style=&quot;font-size: 15px;&quot;&gt;Sender&lt;/font&gt;" style="rounded=1;whiteSpace=wrap;html=1;sketch=1;hachureGap=4;jiggle=2;curveFitting=1;fontFamily=Architects Daughter;fontSource=https%3A%2F%2Ffonts.googleapis.com%2Fcss%3Ffamily%3DArchitects%2BDaughter;fontSize=20;fontStyle=1;fillColor=#d5e8d4;strokeColor=#82b366;" vertex="1" parent="1">
          <mxGeometry x="43.5" y="218" width="66" height="46.88" as="geometry" />
        </mxCell>
        <mxCell id="sZInOojBc2r-sn2G34uh-22" style="rounded=0;sketch=1;hachureGap=4;jiggle=2;curveFitting=1;orthogonalLoop=1;jettySize=auto;html=1;entryX=1;entryY=0.75;entryDx=0;entryDy=0;fontFamily=Architects Daughter;fontSource=https%3A%2F%2Ffonts.googleapis.com%2Fcss%3Ffamily%3DArchitects%2BDaughter;fontSize=16;dashed=1;dashPattern=8 8;" edge="1" parent="1" target="sZInOojBc2r-sn2G34uh-17">
          <mxGeometry relative="1" as="geometry">
            <mxPoint x="310" y="247" as="sourcePoint" />
          </mxGeometry>
        </mxCell>
        <mxCell id="sZInOojBc2r-sn2G34uh-25" value="" style="sketch=0;pointerEvents=1;shadow=0;dashed=0;html=1;strokeColor=#001DBC;fillColor=#0050ef;labelPosition=center;verticalLabelPosition=bottom;verticalAlign=top;align=center;outlineConnect=0;shape=mxgraph.veeam2.letter;hachureGap=4;jiggle=2;curveFitting=1;fontFamily=Architects Daughter;fontSource=https%3A%2F%2Ffonts.googleapis.com%2Fcss%3Ffamily%3DArchitects%2BDaughter;fontSize=20;fontColor=#ffffff;" vertex="1" parent="1">
          <mxGeometry x="117.5" y="203" width="25" height="15" as="geometry" />
        </mxCell>
        <mxCell id="sZInOojBc2r-sn2G34uh-28" value="Parallel processing" style="text;html=1;align=center;verticalAlign=middle;resizable=0;points=[];autosize=1;strokeColor=none;fillColor=none;fontSize=20;fontFamily=Architects Daughter;fontStyle=1" vertex="1" parent="1">
          <mxGeometry x="476.5" y="293" width="200" height="40" as="geometry" />
        </mxCell>
        <mxCell id="sZInOojBc2r-sn2G34uh-29" value="&lt;span style=&quot;font-size: 15px;&quot;&gt;With pub/sub notify multiple consumers&lt;br&gt;Can scale to run processes in parallel&lt;br&gt;&lt;/span&gt;" style="text;html=1;align=center;verticalAlign=middle;resizable=0;points=[];autosize=1;strokeColor=none;fillColor=none;fontSize=20;fontFamily=Architects Daughter;fontStyle=0" vertex="1" parent="1">
          <mxGeometry x="436.5" y="320" width="300" height="60" as="geometry" />
        </mxCell>
        <mxCell id="sZInOojBc2r-sn2G34uh-31" style="rounded=0;sketch=1;hachureGap=4;jiggle=2;curveFitting=1;orthogonalLoop=1;jettySize=auto;html=1;exitX=0;exitY=0.75;exitDx=0;exitDy=0;entryX=1;entryY=0.75;entryDx=0;entryDy=0;fontFamily=Architects Daughter;fontSource=https%3A%2F%2Ffonts.googleapis.com%2Fcss%3Ffamily%3DArchitects%2BDaughter;fontSize=16;" edge="1" parent="1" source="sZInOojBc2r-sn2G34uh-33" target="sZInOojBc2r-sn2G34uh-37">
          <mxGeometry relative="1" as="geometry" />
        </mxCell>
        <mxCell id="sZInOojBc2r-sn2G34uh-32" value="act" style="edgeLabel;html=1;align=center;verticalAlign=middle;resizable=0;points=[];fontSize=15;fontFamily=Architects Daughter;fontStyle=1" vertex="1" connectable="0" parent="sZInOojBc2r-sn2G34uh-31">
          <mxGeometry x="-0.1667" y="-2" relative="1" as="geometry">
            <mxPoint x="-2" y="14" as="offset" />
          </mxGeometry>
        </mxCell>
        <mxCell id="sZInOojBc2r-sn2G34uh-40" style="rounded=0;sketch=1;hachureGap=4;jiggle=2;curveFitting=1;orthogonalLoop=1;jettySize=auto;html=1;exitX=1;exitY=0.75;exitDx=0;exitDy=0;entryX=0;entryY=0.5;entryDx=0;entryDy=0;fontFamily=Architects Daughter;fontSource=https%3A%2F%2Ffonts.googleapis.com%2Fcss%3Ffamily%3DArchitects%2BDaughter;fontSize=16;" edge="1" parent="1" source="sZInOojBc2r-sn2G34uh-33" target="rB4Y1eUFVRoOfI1-BTqv-90">
          <mxGeometry relative="1" as="geometry" />
        </mxCell>
        <mxCell id="sZInOojBc2r-sn2G34uh-41" style="rounded=0;sketch=1;hachureGap=4;jiggle=2;curveFitting=1;orthogonalLoop=1;jettySize=auto;html=1;exitX=1;exitY=0.25;exitDx=0;exitDy=0;entryX=0;entryY=0.5;entryDx=0;entryDy=0;fontFamily=Architects Daughter;fontSource=https%3A%2F%2Ffonts.googleapis.com%2Fcss%3Ffamily%3DArchitects%2BDaughter;fontSize=16;" edge="1" parent="1" source="sZInOojBc2r-sn2G34uh-33" target="rB4Y1eUFVRoOfI1-BTqv-83">
          <mxGeometry relative="1" as="geometry" />
        </mxCell>
        <mxCell id="sZInOojBc2r-sn2G34uh-33" value="" style="rounded=1;whiteSpace=wrap;html=1;sketch=1;hachureGap=4;jiggle=2;curveFitting=1;fontFamily=Architects Daughter;fontSource=https%3A%2F%2Ffonts.googleapis.com%2Fcss%3Ffamily%3DArchitects%2BDaughter;fontSize=20;" vertex="1" parent="1">
          <mxGeometry x="526" y="224.88" width="85" height="30" as="geometry" />
        </mxCell>
        <mxCell id="sZInOojBc2r-sn2G34uh-34" value="" style="sketch=0;pointerEvents=1;shadow=0;dashed=0;html=1;strokeColor=#2D7600;fillColor=#60a917;labelPosition=center;verticalLabelPosition=bottom;verticalAlign=top;align=center;outlineConnect=0;shape=mxgraph.veeam2.letter;hachureGap=4;jiggle=2;curveFitting=1;fontFamily=Architects Daughter;fontSource=https%3A%2F%2Ffonts.googleapis.com%2Fcss%3Ffamily%3DArchitects%2BDaughter;fontSize=20;fontColor=#ffffff;" vertex="1" parent="1">
          <mxGeometry x="536" y="229.88" width="25" height="15" as="geometry" />
        </mxCell>
        <mxCell id="sZInOojBc2r-sn2G34uh-35" value="" style="sketch=0;pointerEvents=1;shadow=0;dashed=0;html=1;strokeColor=#C73500;fillColor=#fa6800;labelPosition=center;verticalLabelPosition=bottom;verticalAlign=top;align=center;outlineConnect=0;shape=mxgraph.veeam2.letter;hachureGap=4;jiggle=2;curveFitting=1;fontFamily=Architects Daughter;fontSource=https%3A%2F%2Ffonts.googleapis.com%2Fcss%3Ffamily%3DArchitects%2BDaughter;fontSize=20;fontColor=#000000;" vertex="1" parent="1">
          <mxGeometry x="568.5" y="229.88" width="25" height="15" as="geometry" />
        </mxCell>
        <mxCell id="sZInOojBc2r-sn2G34uh-36" style="rounded=0;sketch=1;hachureGap=4;jiggle=2;curveFitting=1;orthogonalLoop=1;jettySize=auto;html=1;exitX=1;exitY=0.25;exitDx=0;exitDy=0;entryX=0;entryY=0.25;entryDx=0;entryDy=0;fontFamily=Architects Daughter;fontSource=https%3A%2F%2Ffonts.googleapis.com%2Fcss%3Ffamily%3DArchitects%2BDaughter;fontSize=16;" edge="1" parent="1" source="sZInOojBc2r-sn2G34uh-37" target="sZInOojBc2r-sn2G34uh-33">
          <mxGeometry relative="1" as="geometry" />
        </mxCell>
        <mxCell id="sZInOojBc2r-sn2G34uh-37" value="&lt;font style=&quot;font-size: 15px;&quot;&gt;Sender&lt;/font&gt;" style="rounded=1;whiteSpace=wrap;html=1;sketch=1;hachureGap=4;jiggle=2;curveFitting=1;fontFamily=Architects Daughter;fontSource=https%3A%2F%2Ffonts.googleapis.com%2Fcss%3Ffamily%3DArchitects%2BDaughter;fontSize=20;fontStyle=1;fillColor=#d5e8d4;strokeColor=#82b366;" vertex="1" parent="1">
          <mxGeometry x="420" y="218" width="66" height="46.88" as="geometry" />
        </mxCell>
        <mxCell id="sZInOojBc2r-sn2G34uh-39" value="" style="sketch=0;pointerEvents=1;shadow=0;dashed=0;html=1;strokeColor=#001DBC;fillColor=#0050ef;labelPosition=center;verticalLabelPosition=bottom;verticalAlign=top;align=center;outlineConnect=0;shape=mxgraph.veeam2.letter;hachureGap=4;jiggle=2;curveFitting=1;fontFamily=Architects Daughter;fontSource=https%3A%2F%2Ffonts.googleapis.com%2Fcss%3Ffamily%3DArchitects%2BDaughter;fontSize=20;fontColor=#ffffff;" vertex="1" parent="1">
          <mxGeometry x="494" y="203" width="25" height="15" as="geometry" />
        </mxCell>
        <mxCell id="sZInOojBc2r-sn2G34uh-42" value="" style="sketch=0;pointerEvents=1;shadow=0;dashed=0;html=1;strokeColor=#C73500;fillColor=#fa6800;labelPosition=center;verticalLabelPosition=bottom;verticalAlign=top;align=center;outlineConnect=0;shape=mxgraph.veeam2.letter;hachureGap=4;jiggle=2;curveFitting=1;fontFamily=Architects Daughter;fontSource=https%3A%2F%2Ffonts.googleapis.com%2Fcss%3Ffamily%3DArchitects%2BDaughter;fontSize=20;fontColor=#000000;" vertex="1" parent="1">
          <mxGeometry x="620" y="191.85" width="25" height="15" as="geometry" />
        </mxCell>
        <mxCell id="sZInOojBc2r-sn2G34uh-44" value="" style="sketch=0;pointerEvents=1;shadow=0;dashed=0;html=1;strokeColor=#C73500;fillColor=#fa6800;labelPosition=center;verticalLabelPosition=bottom;verticalAlign=top;align=center;outlineConnect=0;shape=mxgraph.veeam2.letter;hachureGap=4;jiggle=2;curveFitting=1;fontFamily=Architects Daughter;fontSource=https%3A%2F%2Ffonts.googleapis.com%2Fcss%3Ffamily%3DArchitects%2BDaughter;fontSize=20;fontColor=#000000;" vertex="1" parent="1">
          <mxGeometry x="620" y="264.88" width="25" height="15" as="geometry" />
        </mxCell>
        <mxCell id="sZInOojBc2r-sn2G34uh-57" value="&lt;font style=&quot;font-size: 15px;&quot;&gt;Consumer&lt;/font&gt;" style="rounded=1;whiteSpace=wrap;html=1;sketch=1;hachureGap=4;jiggle=2;curveFitting=1;fontFamily=Architects Daughter;fontSource=https%3A%2F%2Ffonts.googleapis.com%2Fcss%3Ffamily%3DArchitects%2BDaughter;fontSize=20;fontStyle=1;fillColor=#dae8fc;strokeColor=#6c8ebf;" vertex="1" parent="1">
          <mxGeometry x="291.5" y="471.19" width="93" height="37.31" as="geometry" />
        </mxCell>
        <mxCell id="sZInOojBc2r-sn2G34uh-59" value="Reduce pressure off consumers" style="text;html=1;align=center;verticalAlign=middle;resizable=0;points=[];autosize=1;strokeColor=none;fillColor=none;fontSize=20;fontFamily=Architects Daughter;fontStyle=1" vertex="1" parent="1">
          <mxGeometry x="31.5" y="542.31" width="340" height="40" as="geometry" />
        </mxCell>
        <mxCell id="sZInOojBc2r-sn2G34uh-60" value="&lt;span style=&quot;font-size: 15px;&quot;&gt;Protect consumers from being overloaded&amp;nbsp;&lt;br&gt;by buffering up messages&lt;br&gt;&lt;/span&gt;" style="text;html=1;align=center;verticalAlign=middle;resizable=0;points=[];autosize=1;strokeColor=none;fillColor=none;fontSize=20;fontFamily=Architects Daughter;fontStyle=0" vertex="1" parent="1">
          <mxGeometry x="46.5" y="569.31" width="330" height="60" as="geometry" />
        </mxCell>
        <mxCell id="sZInOojBc2r-sn2G34uh-61" style="rounded=0;sketch=1;hachureGap=4;jiggle=2;curveFitting=1;orthogonalLoop=1;jettySize=auto;html=1;exitX=0;exitY=0.75;exitDx=0;exitDy=0;entryX=1;entryY=0.75;entryDx=0;entryDy=0;fontFamily=Architects Daughter;fontSource=https%3A%2F%2Ffonts.googleapis.com%2Fcss%3Ffamily%3DArchitects%2BDaughter;fontSize=16;" edge="1" parent="1" source="sZInOojBc2r-sn2G34uh-65" target="sZInOojBc2r-sn2G34uh-69">
          <mxGeometry relative="1" as="geometry" />
        </mxCell>
        <mxCell id="sZInOojBc2r-sn2G34uh-62" value="act" style="edgeLabel;html=1;align=center;verticalAlign=middle;resizable=0;points=[];fontSize=15;fontFamily=Architects Daughter;fontStyle=1" vertex="1" connectable="0" parent="sZInOojBc2r-sn2G34uh-61">
          <mxGeometry x="-0.1667" y="-2" relative="1" as="geometry">
            <mxPoint x="-2" y="14" as="offset" />
          </mxGeometry>
        </mxCell>
        <mxCell id="sZInOojBc2r-sn2G34uh-73" style="edgeStyle=orthogonalEdgeStyle;rounded=0;sketch=1;hachureGap=4;jiggle=2;curveFitting=1;orthogonalLoop=1;jettySize=auto;html=1;exitX=1;exitY=0.5;exitDx=0;exitDy=0;entryX=0;entryY=0.5;entryDx=0;entryDy=0;fontFamily=Architects Daughter;fontSource=https%3A%2F%2Ffonts.googleapis.com%2Fcss%3Ffamily%3DArchitects%2BDaughter;fontSize=16;" edge="1" parent="1" source="sZInOojBc2r-sn2G34uh-65" target="sZInOojBc2r-sn2G34uh-57">
          <mxGeometry relative="1" as="geometry" />
        </mxCell>
        <mxCell id="sZInOojBc2r-sn2G34uh-65" value="" style="rounded=1;whiteSpace=wrap;html=1;sketch=1;hachureGap=4;jiggle=2;curveFitting=1;fontFamily=Architects Daughter;fontSource=https%3A%2F%2Ffonts.googleapis.com%2Fcss%3Ffamily%3DArchitects%2BDaughter;fontSize=20;" vertex="1" parent="1">
          <mxGeometry x="151" y="474.19" width="85" height="30" as="geometry" />
        </mxCell>
        <mxCell id="sZInOojBc2r-sn2G34uh-66" value="" style="sketch=0;pointerEvents=1;shadow=0;dashed=0;html=1;strokeColor=#2D7600;fillColor=#60a917;labelPosition=center;verticalLabelPosition=bottom;verticalAlign=top;align=center;outlineConnect=0;shape=mxgraph.veeam2.letter;hachureGap=4;jiggle=2;curveFitting=1;fontFamily=Architects Daughter;fontSource=https%3A%2F%2Ffonts.googleapis.com%2Fcss%3Ffamily%3DArchitects%2BDaughter;fontSize=20;fontColor=#ffffff;" vertex="1" parent="1">
          <mxGeometry x="161" y="479.19" width="25" height="15" as="geometry" />
        </mxCell>
        <mxCell id="sZInOojBc2r-sn2G34uh-67" value="" style="sketch=0;pointerEvents=1;shadow=0;dashed=0;html=1;strokeColor=#C73500;fillColor=#fa6800;labelPosition=center;verticalLabelPosition=bottom;verticalAlign=top;align=center;outlineConnect=0;shape=mxgraph.veeam2.letter;hachureGap=4;jiggle=2;curveFitting=1;fontFamily=Architects Daughter;fontSource=https%3A%2F%2Ffonts.googleapis.com%2Fcss%3Ffamily%3DArchitects%2BDaughter;fontSize=20;fontColor=#000000;" vertex="1" parent="1">
          <mxGeometry x="193.5" y="479.19" width="25" height="15" as="geometry" />
        </mxCell>
        <mxCell id="sZInOojBc2r-sn2G34uh-68" style="rounded=0;sketch=1;hachureGap=4;jiggle=2;curveFitting=1;orthogonalLoop=1;jettySize=auto;html=1;exitX=1;exitY=0.25;exitDx=0;exitDy=0;entryX=0;entryY=0.25;entryDx=0;entryDy=0;fontFamily=Architects Daughter;fontSource=https%3A%2F%2Ffonts.googleapis.com%2Fcss%3Ffamily%3DArchitects%2BDaughter;fontSize=16;" edge="1" parent="1" source="sZInOojBc2r-sn2G34uh-69" target="sZInOojBc2r-sn2G34uh-65">
          <mxGeometry relative="1" as="geometry" />
        </mxCell>
        <mxCell id="sZInOojBc2r-sn2G34uh-69" value="&lt;font style=&quot;font-size: 15px;&quot;&gt;Sender&lt;/font&gt;" style="rounded=1;whiteSpace=wrap;html=1;sketch=1;hachureGap=4;jiggle=2;curveFitting=1;fontFamily=Architects Daughter;fontSource=https%3A%2F%2Ffonts.googleapis.com%2Fcss%3Ffamily%3DArchitects%2BDaughter;fontSize=20;fontStyle=1;fillColor=#d5e8d4;strokeColor=#82b366;" vertex="1" parent="1">
          <mxGeometry x="45" y="467.31" width="66" height="46.88" as="geometry" />
        </mxCell>
        <mxCell id="sZInOojBc2r-sn2G34uh-70" value="" style="sketch=0;pointerEvents=1;shadow=0;dashed=0;html=1;strokeColor=#001DBC;fillColor=#0050ef;labelPosition=center;verticalLabelPosition=bottom;verticalAlign=top;align=center;outlineConnect=0;shape=mxgraph.veeam2.letter;hachureGap=4;jiggle=2;curveFitting=1;fontFamily=Architects Daughter;fontSource=https%3A%2F%2Ffonts.googleapis.com%2Fcss%3Ffamily%3DArchitects%2BDaughter;fontSize=20;fontColor=#ffffff;" vertex="1" parent="1">
          <mxGeometry x="119" y="452.31" width="25" height="15" as="geometry" />
        </mxCell>
        <mxCell id="sZInOojBc2r-sn2G34uh-71" value="" style="sketch=0;pointerEvents=1;shadow=0;dashed=0;html=1;strokeColor=#C73500;fillColor=#fa6800;labelPosition=center;verticalLabelPosition=bottom;verticalAlign=top;align=center;outlineConnect=0;shape=mxgraph.veeam2.letter;hachureGap=4;jiggle=2;curveFitting=1;fontFamily=Architects Daughter;fontSource=https%3A%2F%2Ffonts.googleapis.com%2Fcss%3Ffamily%3DArchitects%2BDaughter;fontSize=20;fontColor=#000000;" vertex="1" parent="1">
          <mxGeometry x="250" y="462.18999999999994" width="25" height="15" as="geometry" />
        </mxCell>
        <mxCell id="sZInOojBc2r-sn2G34uh-74" value="&lt;font style=&quot;font-size: 15px;&quot;&gt;Consumer 1&lt;/font&gt;" style="rounded=1;whiteSpace=wrap;html=1;sketch=1;hachureGap=4;jiggle=2;curveFitting=1;fontFamily=Architects Daughter;fontSource=https%3A%2F%2Ffonts.googleapis.com%2Fcss%3Ffamily%3DArchitects%2BDaughter;fontSize=20;fontStyle=1;fillColor=#dae8fc;strokeColor=#6c8ebf;" vertex="1" parent="1">
          <mxGeometry x="660" y="472.09" width="93" height="37.31" as="geometry" />
        </mxCell>
        <mxCell id="sZInOojBc2r-sn2G34uh-76" value="Prevent message being lost" style="text;html=1;align=center;verticalAlign=middle;resizable=0;points=[];autosize=1;strokeColor=none;fillColor=none;fontSize=20;fontFamily=Architects Daughter;fontStyle=1" vertex="1" parent="1">
          <mxGeometry x="436.5" y="542.31" width="280" height="40" as="geometry" />
        </mxCell>
        <mxCell id="sZInOojBc2r-sn2G34uh-77" value="&lt;span style=&quot;font-size: 15px;&quot;&gt;Messages can be reprocced after failures&lt;br&gt;&lt;/span&gt;" style="text;html=1;align=center;verticalAlign=middle;resizable=0;points=[];autosize=1;strokeColor=none;fillColor=none;fontSize=20;fontFamily=Architects Daughter;fontStyle=0" vertex="1" parent="1">
          <mxGeometry x="421.5" y="579.31" width="330" height="40" as="geometry" />
        </mxCell>
        <mxCell id="sZInOojBc2r-sn2G34uh-78" style="rounded=0;sketch=1;hachureGap=4;jiggle=2;curveFitting=1;orthogonalLoop=1;jettySize=auto;html=1;exitX=0;exitY=0.75;exitDx=0;exitDy=0;entryX=1;entryY=0.75;entryDx=0;entryDy=0;fontFamily=Architects Daughter;fontSource=https%3A%2F%2Ffonts.googleapis.com%2Fcss%3Ffamily%3DArchitects%2BDaughter;fontSize=16;" edge="1" parent="1" source="sZInOojBc2r-sn2G34uh-82" target="sZInOojBc2r-sn2G34uh-86">
          <mxGeometry relative="1" as="geometry" />
        </mxCell>
        <mxCell id="sZInOojBc2r-sn2G34uh-79" value="act" style="edgeLabel;html=1;align=center;verticalAlign=middle;resizable=0;points=[];fontSize=15;fontFamily=Architects Daughter;fontStyle=1" vertex="1" connectable="0" parent="sZInOojBc2r-sn2G34uh-78">
          <mxGeometry x="-0.1667" y="-2" relative="1" as="geometry">
            <mxPoint x="-2" y="14" as="offset" />
          </mxGeometry>
        </mxCell>
        <mxCell id="sZInOojBc2r-sn2G34uh-92" style="edgeStyle=orthogonalEdgeStyle;rounded=0;sketch=1;hachureGap=4;jiggle=2;curveFitting=1;orthogonalLoop=1;jettySize=auto;html=1;exitX=1;exitY=0.25;exitDx=0;exitDy=0;entryX=0;entryY=0.25;entryDx=0;entryDy=0;fontFamily=Architects Daughter;fontSource=https%3A%2F%2Ffonts.googleapis.com%2Fcss%3Ffamily%3DArchitects%2BDaughter;fontSize=16;" edge="1" parent="1" source="sZInOojBc2r-sn2G34uh-82" target="sZInOojBc2r-sn2G34uh-74">
          <mxGeometry relative="1" as="geometry" />
        </mxCell>
        <mxCell id="sZInOojBc2r-sn2G34uh-93" style="rounded=0;sketch=1;hachureGap=4;jiggle=2;curveFitting=1;orthogonalLoop=1;jettySize=auto;html=1;exitX=1;exitY=0.75;exitDx=0;exitDy=0;entryX=0;entryY=0.75;entryDx=0;entryDy=0;fontFamily=Architects Daughter;fontSource=https%3A%2F%2Ffonts.googleapis.com%2Fcss%3Ffamily%3DArchitects%2BDaughter;fontSize=16;" edge="1" parent="1" source="sZInOojBc2r-sn2G34uh-82" target="sZInOojBc2r-sn2G34uh-74">
          <mxGeometry relative="1" as="geometry" />
        </mxCell>
        <mxCell id="sZInOojBc2r-sn2G34uh-82" value="" style="rounded=1;whiteSpace=wrap;html=1;sketch=1;hachureGap=4;jiggle=2;curveFitting=1;fontFamily=Architects Daughter;fontSource=https%3A%2F%2Ffonts.googleapis.com%2Fcss%3Ffamily%3DArchitects%2BDaughter;fontSize=20;" vertex="1" parent="1">
          <mxGeometry x="526" y="474.19" width="85" height="30" as="geometry" />
        </mxCell>
        <mxCell id="sZInOojBc2r-sn2G34uh-83" value="" style="sketch=0;pointerEvents=1;shadow=0;dashed=0;html=1;strokeColor=#2D7600;fillColor=#60a917;labelPosition=center;verticalLabelPosition=bottom;verticalAlign=top;align=center;outlineConnect=0;shape=mxgraph.veeam2.letter;hachureGap=4;jiggle=2;curveFitting=1;fontFamily=Architects Daughter;fontSource=https%3A%2F%2Ffonts.googleapis.com%2Fcss%3Ffamily%3DArchitects%2BDaughter;fontSize=20;fontColor=#ffffff;" vertex="1" parent="1">
          <mxGeometry x="536" y="479.19" width="25" height="15" as="geometry" />
        </mxCell>
        <mxCell id="sZInOojBc2r-sn2G34uh-84" value="" style="sketch=0;pointerEvents=1;shadow=0;dashed=0;html=1;strokeColor=#C73500;fillColor=#fa6800;labelPosition=center;verticalLabelPosition=bottom;verticalAlign=top;align=center;outlineConnect=0;shape=mxgraph.veeam2.letter;hachureGap=4;jiggle=2;curveFitting=1;fontFamily=Architects Daughter;fontSource=https%3A%2F%2Ffonts.googleapis.com%2Fcss%3Ffamily%3DArchitects%2BDaughter;fontSize=20;fontColor=#000000;" vertex="1" parent="1">
          <mxGeometry x="568.5" y="479.19" width="25" height="15" as="geometry" />
        </mxCell>
        <mxCell id="sZInOojBc2r-sn2G34uh-85" style="rounded=0;sketch=1;hachureGap=4;jiggle=2;curveFitting=1;orthogonalLoop=1;jettySize=auto;html=1;exitX=1;exitY=0.25;exitDx=0;exitDy=0;entryX=0;entryY=0.25;entryDx=0;entryDy=0;fontFamily=Architects Daughter;fontSource=https%3A%2F%2Ffonts.googleapis.com%2Fcss%3Ffamily%3DArchitects%2BDaughter;fontSize=16;" edge="1" parent="1" source="sZInOojBc2r-sn2G34uh-86" target="sZInOojBc2r-sn2G34uh-82">
          <mxGeometry relative="1" as="geometry" />
        </mxCell>
        <mxCell id="sZInOojBc2r-sn2G34uh-86" value="&lt;font style=&quot;font-size: 15px;&quot;&gt;Sender&lt;/font&gt;" style="rounded=1;whiteSpace=wrap;html=1;sketch=1;hachureGap=4;jiggle=2;curveFitting=1;fontFamily=Architects Daughter;fontSource=https%3A%2F%2Ffonts.googleapis.com%2Fcss%3Ffamily%3DArchitects%2BDaughter;fontSize=20;fontStyle=1;fillColor=#d5e8d4;strokeColor=#82b366;" vertex="1" parent="1">
          <mxGeometry x="420" y="467.31" width="66" height="46.88" as="geometry" />
        </mxCell>
        <mxCell id="sZInOojBc2r-sn2G34uh-87" value="" style="sketch=0;pointerEvents=1;shadow=0;dashed=0;html=1;strokeColor=#001DBC;fillColor=#0050ef;labelPosition=center;verticalLabelPosition=bottom;verticalAlign=top;align=center;outlineConnect=0;shape=mxgraph.veeam2.letter;hachureGap=4;jiggle=2;curveFitting=1;fontFamily=Architects Daughter;fontSource=https%3A%2F%2Ffonts.googleapis.com%2Fcss%3Ffamily%3DArchitects%2BDaughter;fontSize=20;fontColor=#ffffff;" vertex="1" parent="1">
          <mxGeometry x="494" y="452.31" width="25" height="15" as="geometry" />
        </mxCell>
        <mxCell id="sZInOojBc2r-sn2G34uh-88" value="" style="sketch=0;pointerEvents=1;shadow=0;dashed=0;html=1;strokeColor=#C73500;fillColor=#fa6800;labelPosition=center;verticalLabelPosition=bottom;verticalAlign=top;align=center;outlineConnect=0;shape=mxgraph.veeam2.letter;hachureGap=4;jiggle=2;curveFitting=1;fontFamily=Architects Daughter;fontSource=https%3A%2F%2Ffonts.googleapis.com%2Fcss%3Ffamily%3DArchitects%2BDaughter;fontSize=20;fontColor=#000000;" vertex="1" parent="1">
          <mxGeometry x="620" y="452.30999999999995" width="25" height="15" as="geometry" />
        </mxCell>
        <mxCell id="sZInOojBc2r-sn2G34uh-90" value="" style="shape=mxgraph.mockup.markup.redX;fillColor=#ff0000;html=1;shadow=0;whiteSpace=wrap;strokeColor=none;hachureGap=4;fontFamily=Architects Daughter;fontSource=https%3A%2F%2Ffonts.googleapis.com%2Fcss%3Ffamily%3DArchitects%2BDaughter;fontSize=20;opacity=60;" vertex="1" parent="1">
          <mxGeometry x="646.5" y="467.31" width="13.5" height="17.69" as="geometry" />
        </mxCell>
      </root>
    </mxGraphModel>
  </diagram>
</mxfile>
